<?xml version="1.0" encoding="UTF-8"?>
<svg width="88" height="50" version="1.1" xmlns="http://www.w3.org/2000/svg">
 <path d="m73 25h16m-64-10h-26m27 20h-27" fill="none" stroke="#000" stroke-width="2"/>
 <path d="m26.857 7.8571h17.619c9.7607 0 16.667 7.64 16.667 17.143s-7.3822 17.143-17.143 17.143h-17.143z" fill="#fff"/>
 <path d="m24 5v40h20.476c11.268 0 20-9 20-20s-8.7321-20-20-20zm2.8571 2.8571h17.619c9.7607 0 16.667 7.64 16.667 17.143s-7.3822 17.143-17.143 17.143h-17.143z"/>
 <path d="m73 25a4 4 0 1 1-8 0 4 4 0 1 1 8 0z" fill="#fff" stroke="#000" stroke-width="3"/>
</svg>
