<?xml version="1.0" encoding="UTF-8"?>
<svg width="88" height="50" version="1.1" xmlns="http://www.w3.org/2000/svg">
 <path d="m73 25h16m-64-10h-26m27 20h-27" fill="none" stroke="#000" stroke-width="2"/>
 <path d="m23.969 8h11.281c4.6842 0 18.287-0.13021 27.969 17-4.7668 8.4291-10.521 12.684-15.719 14.812-5.3607 2.1954-9.8419 2.1875-12.25 2.1875h-11.25c1.8736-3.1084 4.75-9.0494 4.75-17 0-7.9734-2.9085-13.9-4.7812-17z" fill="#fff" fill-rule="evenodd"/>
 <path d="m18.094 5 2 2.4375s5.6562 7 5.6562 17.562-5.6562 17.562-5.6562 17.562l-2 2.4375h17.156c2.4081 1e-6 7.6897 0.02451 13.625-2.4062 5.9353-2.4308 12.537-7.3433 17.688-16.875l-1.3125-0.71875 1.3125-0.71875c-10.303-19.066-26.556-19.281-31.312-19.281zm5.875 3h11.281c4.6842 0 18.287-0.13021 27.969 17-4.7668 8.4291-10.521 12.684-15.719 14.812-5.3607 2.1954-9.8419 2.1875-12.25 2.1875h-11.25c1.8736-3.1084 4.75-9.0494 4.75-17 0-7.9734-2.9085-13.9-4.7812-17z" fill-rule="evenodd"/>
 <path d="m73 25a4 4 0 1 1-8 0 4 4 0 1 1 8 0z" fill="#fff" stroke="#000" stroke-width="3"/>
</svg>
