<?xml version="1.0" encoding="UTF-8"?>
<svg width="88" height="50" version="1.1" xmlns="http://www.w3.org/2000/svg">
 <path d="m64 25h25m-64.614-10h-25.386m26.362 20h-26.362" fill="none" stroke="#000" stroke-width="2"/>
 <g transform="translate(-6)" fill-rule="evenodd">
  <path d="m24.25 42c-1.5974 2.6444-2.25 3-2.25 3h-3.6562l2-2.4375s5.6562-7 5.6562-17.562-5.6562-17.562-5.6562-17.562l-2-2.4375h3.6562c0.78125 0.9375 1.4219 1.6562 2.2188 3 1.8727 3.0998 4.7812 9.0266 4.7812 17 0 7.9506-2.8967 13.879-4.75 17z"/>
  <path d="m24.094 5 2 2.4375s5.6562 7 5.6562 17.562-5.6562 17.562-5.6562 17.562l-2 2.4375h17.156c2.4081 0 7.6897 0.02451 13.625-2.4062s12.537-7.3433 17.688-16.875l-1.3125-0.71875 1.3125-0.71875c-10.303-19.066-26.556-19.281-31.312-19.281zm5.875 3h11.281c4.6842 0 18.287-0.1302 27.969 17-4.7668 8.4291-10.521 12.684-15.719 14.812-5.3607 2.1954-9.8419 2.1875-12.25 2.1875h-11.25c1.8736-3.1084 4.75-9.0494 4.75-17 0-7.9734-2.9085-13.9-4.7812-17z"/>
 </g>
</svg>
