<?xml version="1.0" encoding="UTF-8" standalone="no"?>
<!-- Created with Inkscape (http://www.inkscape.org/) -->

<svg
   width="90"
   height="120"
   viewBox="0 0 90 120"
   version="1.1"
   id="svg1"
   xmlns="http://www.w3.org/2000/svg"
   xmlns:svg="http://www.w3.org/2000/svg">
  <defs
     id="defs1" />
  <g
     id="layer1">
    <rect
       style="display:none;fill:none;stroke:#000000;stroke-width:1.98364;stroke-dasharray:none"
       id="rect1"
       width="68.016357"
       height="118.01637"
       x="20.991819"
       y="0.99181795" />
    <path
       style="display:none;fill:#ff0000;fill-opacity:1;stroke:none;stroke-width:2;stroke-dasharray:none"
       d="m 37.896931,20.60398 2.443296,-2.225144 h 29.843106 l 1.919733,2.225144 -1.919733,2.225144 H 40.340227 Z"
       id="path1" />
    <path
       style="display:none;fill:#ff0000;fill-opacity:1;stroke:none;stroke-width:2;stroke-dasharray:none"
       d="m 73.999998,23.18857 2.225144,2.443296 v 29.843106 l -2.225144,1.919732 -2.225144,-1.919732 V 25.631866 Z"
       id="path1-5" />
    <path
       style="display:inline;fill:#ff0000;fill-opacity:1;stroke:none;stroke-width:2;stroke-dasharray:none"
       d="m 73.999998,62.605295 2.225144,2.443296 V 94.891697 L 73.999998,96.81143 71.774854,94.891697 V 65.048591 Z"
       id="path4" />
    <path
       style="display:none;fill:#ff0000;fill-opacity:1;stroke:none;stroke-width:2;stroke-dasharray:none"
       d="m 37.89693,99.396019 2.443296,-2.225144 h 29.843107 l 1.919732,2.225144 -1.919732,2.225141 H 40.340226 Z"
       id="path5" />
    <path
       style="display:none;fill:#ff0000;fill-opacity:1;stroke:none;stroke-width:2;stroke-dasharray:none"
       d="m 35.999998,62.605295 2.225144,2.443296 V 94.891697 L 35.999998,96.81143 33.774854,94.891697 V 65.048591 Z"
       id="path6" />
    <path
       style="display:none;fill:#ff0000;fill-opacity:1;stroke:none;stroke-width:2;stroke-dasharray:none"
       d="m 35.999998,23.18857 2.225144,2.443296 v 29.843106 l -2.225144,1.919732 -2.225144,-1.919732 V 25.631866 Z"
       id="path3" />
    <path
       style="display:none;fill:#ff0000;fill-opacity:1;stroke:none;stroke-width:2;stroke-dasharray:none"
       d="m 37.89693,59.979294 2.443296,-2.225144 h 29.843107 l 1.919732,2.225144 -1.919732,2.225144 H 40.340226 Z"
       id="path2" />
    <path
       style="display:none;fill:none;fill-opacity:1;stroke:#000000;stroke-width:2;stroke-dasharray:none;stroke-opacity:1"
       d="M 20.942532,17 H 0"
       id="path7" />
    <path
       style="display:none;fill:none;fill-opacity:1;stroke:#000000;stroke-width:2;stroke-dasharray:none;stroke-opacity:1"
       d="M 20.942532,31.333333 H 0"
       id="path8" />
    <path
       style="display:none;fill:none;fill-opacity:1;stroke:#000000;stroke-width:2;stroke-dasharray:none;stroke-opacity:1"
       d="M 20.942532,45.666667 H 0"
       id="path9" />
    <path
       style="display:none;fill:none;fill-opacity:1;stroke:#000000;stroke-width:2;stroke-dasharray:none;stroke-opacity:1"
       d="M 20.942532,60 H 0"
       id="path10" />
    <path
       style="display:none;fill:none;fill-opacity:1;stroke:#000000;stroke-width:2;stroke-dasharray:none;stroke-opacity:1"
       d="M 20.942532,74.333333 H 0"
       id="path11" />
    <path
       style="display:none;fill:none;fill-opacity:1;stroke:#000000;stroke-width:2;stroke-dasharray:none;stroke-opacity:1"
       d="M 20.942532,88.666667 H 0"
       id="path12" />
    <path
       style="display:none;fill:none;fill-opacity:1;stroke:#000000;stroke-width:2;stroke-dasharray:none;stroke-opacity:1"
       d="M 20.942532,103 H 0"
       id="path13" />
  </g>
</svg>
